Coordinates
version=1
nRows=9
nColumns=24
inDegrees=yes

Units are S.I. units (second, meters, Newtons, ...)
Angles are in degrees.

endheader
time	pelvis_tilt	pelvis_list	pelvis_rotation	pelvis_tx	pelvis_ty	pelvis_tz	hip_flexion_r	hip_adduction_r	hip_rotation_r	knee_angle_r	ankle_angle_r	subtalar_angle_r	mtp_angle_r	hip_flexion_l	hip_adduction_l	hip_rotation_l	knee_angle_l	ankle_angle_l	subtalar_angle_l	mtp_angle_l	lumbar_extension	lumbar_bending	lumbar_rotation
      4.74000000	    -10.02639107	     -8.09494730	      3.44265591	     -1.49571512	     -0.01798473	      0.45373114	     18.90438267	     10.34347858	     -3.38843896	    -13.06759963	     -5.18400080	     -5.01903467	      3.44491422	     17.38712120	     -8.25214364	      3.62293685	    -58.74287476	    -26.42101956	     -9.53758216	     23.78433484	      9.20275598	      6.36297122	     -6.04842527
      4.74500000	     -9.96157092	     -7.95048774	      3.33447245	     -1.48962897	     -0.01736949	      0.45459717	     18.24500015	     10.36131988	     -3.03745062	    -12.82402364	     -4.94603114	     -5.14151664	      3.35625510	     18.16903168	     -8.12098050	      3.48020552	    -59.50704507	    -26.20753435	    -11.36139764	     22.70732997	      9.08625760	      6.16007239	     -5.69812029
      4.75000000	     -9.90112150	     -7.80328827	      3.21601115	     -1.48359907	     -0.01675812	      0.45545770	     17.59545270	     10.37738179	     -2.66756428	    -12.58306191	     -4.75992220	     -5.32261419	      3.23172131	     18.94931905	     -7.98751753	      3.34848722	    -60.17365639	    -25.96285578	    -12.96632002	     21.80230715	      8.96419328	      5.96104418	     -5.30983297
      4.75500000	     -9.85849463	     -7.57490396	      3.07219801	     -1.47756926	     -0.01612446	      0.45632991	     16.95056133	     10.31116827	     -2.21236143	    -12.33453734	     -4.55656844	     -5.52731556	      3.11310253	     19.70868261	     -7.76984420	      3.18938096	    -60.71132868	    -25.63406406	    -14.28804762	     21.01242233	      8.85807476	      5.68026658	     -4.91603439
      4.76000000	     -9.81595362	     -7.33687253	      2.91288060	     -1.47157851	     -0.01547269	      0.45721231	     16.30917163	     10.23311944	     -1.77085743	    -12.08451374	     -4.39940480	     -5.73835506	      2.99287555	     20.45125775	     -7.54597436	      3.02940349	    -61.14634224	    -25.20323970	    -15.33001480	     20.33737584	      8.74354347	      5.39212989	     -4.44958963
      4.76500000	     -9.79168378	     -7.03742010	      2.74883197	     -1.46562103	     -0.01480366	      0.45807320	     15.68769289	     10.08032857	     -1.32466629	    -11.83840704	     -4.23155114	     -5.92479236	      2.89227722	     21.17880544	     -7.25033191	      2.87308987	    -61.44519701	    -24.66292795	    -16.09167713	     19.92105855	      8.64185882	      5.04663185	     -4.02789457
      4.77000000	     -9.77295478	     -6.72444011	      2.56943676	     -1.45968268	     -0.01412835	      0.45895844	     15.06622235	      9.90988661	     -0.88923919	    -11.57550364	     -4.07100487	     -6.08728498	      2.80316725	     21.89017240	     -6.95236744	      2.69523293	    -61.62986233	    -24.06667018	    -16.64176171	     19.65058971	      8.54413847	      4.68774988	     -3.56619762
      4.77500000	     -9.77581629	     -6.39254298	      2.45948466	     -1.45376286	     -0.01347375	      0.45976118	     14.45466576	      9.68750616	     -0.53501444	    -11.27361372	     -3.85810924	     -6.17762449	      2.76350173	     22.62499945	     -6.60545415	      2.59203035	    -61.70444641	    -23.46295417	    -16.97557564	     19.61240496	      8.47975836	      4.29464391	     -3.20358626
      4.78000000	     -9.76501757	     -5.99970257	      2.17079932	     -1.44788798	     -0.01274260	      0.46072212	     13.83075752	      9.43801836	     -0.01155686	    -10.99045918	     -3.72876119	     -6.27439475	      2.69996106	     23.26136654	     -6.26918880	      2.29226878	    -61.63553588	    -22.71374729	    -17.07602727	     19.60003070	      8.37380542	      3.88293355	     -2.59037481
